<svg xmlns="http://www.w3.org/2000/svg" viewBox="0 0 30 30"><defs><style>.cls-1{fill:#f2f2f2;}.cls-2{fill:#b3b3b3;}</style></defs><title>附件</title><g id="图层_2" data-name="图层 2"><g id="图层_1-2" data-name="图层 1"><path class="cls-1" d="M27.7,30H2.3A2.26,2.26,0,0,1,0,27.7V2.3A2.26,2.26,0,0,1,2.3,0H27.6A2.29,2.29,0,0,1,30,2.3V27.6A2.29,2.29,0,0,1,27.7,30Z"/><path class="cls-2" d="M23.5,17l-6.2,6.2A6.51,6.51,0,0,1,8.1,14L16,6.1a4.67,4.67,0,0,1,6.6,6.6L15.3,20a3,3,0,0,1-4.1,0,2.87,2.87,0,0,1,0-4.1l6-6,1.4,1.4-6,6a.85.85,0,0,0,1.2,1.2L21,11.3a2.62,2.62,0,0,0-3.7-3.7L9.4,15.5a4.53,4.53,0,1,0,6.4,6.4L22,15.7Z"/></g></g></svg>