<svg xmlns="http://www.w3.org/2000/svg" viewBox="0 0 89.09 89"><defs><style>.cls-1{fill:#b3b3b3;}.cls-2,.cls-3,.cls-4{fill:none;}.cls-3,.cls-4{stroke:#fff;stroke-miterlimit:10;stroke-width:2px;}.cls-3{fill-rule:evenodd;}</style></defs><title>考勤卡灰</title><g id="图层_2" data-name="图层 2"><g id="图层_1-2" data-name="图层 1"><rect class="cls-1" x="4.54" y="4.5" width="80" height="80" rx="34" ry="34"/><rect class="cls-2" width="89.09" height="89"/><path class="cls-3" d="M34.47,54.93H28.84a2.33,2.33,0,0,1-2.33-2.33V23.16a2.33,2.33,0,0,1,2.33-2.33H48a2.33,2.33,0,0,1,2.33,2.33v4.49"/><path class="cls-3" d="M42.42,61.75H36.79a2.33,2.33,0,0,1-2.33-2.33V30a2.33,2.33,0,0,1,2.33-2.33H56A2.33,2.33,0,0,1,58.33,30v4.49"/><rect class="cls-4" x="42.42" y="34.47" width="23.86" height="34.09" rx="2.05" ry="2.05"/></g></g></svg>