<svg xmlns="http://www.w3.org/2000/svg" viewBox="0 0 89.09 89"><defs><style>.cls-1{fill:#b3b3b3;}.cls-2,.cls-3{fill:none;}.cls-2{stroke:#fff;stroke-miterlimit:10;stroke-width:2px;}</style></defs><title>资源 132</title><g id="图层_2" data-name="图层 2"><g id="图层_1-2" data-name="图层 1"><rect class="cls-1" x="4.54" y="4.5" width="80" height="80" rx="34" ry="34"/><path class="cls-2" d="M44.54,63.16h22A4.43,4.43,0,0,0,71,58.75V34.69a4.43,4.43,0,0,0-4.45-4.41H61a3.86,3.86,0,0,1-3.21-1.17l-2-2a3.47,3.47,0,0,0-2.69-1.29H36a3.47,3.47,0,0,0-2.69,1.29l-2,2a3.86,3.86,0,0,1-3.21,1.17H22.5A4.43,4.43,0,0,0,18,34.69V58.75a4.43,4.43,0,0,0,4.45,4.41h22Z"/><ellipse class="cls-2" cx="44.54" cy="46.06" rx="12.27" ry="12.14"/><polyline class="cls-2" points="44.54 38.17 44.54 46.06 48.85 50.32"/><rect class="cls-3" width="89.09" height="89"/></g></g></svg>