<svg xmlns="http://www.w3.org/2000/svg" viewBox="0 0 56 56"><defs><style>.cls-1{fill:#4d4d4d;fill-rule:evenodd;}.cls-2{fill:none;}</style></defs><title>资源 51@3x</title><g id="图层_2" data-name="图层 2"><g id="图层_1-2" data-name="图层 1"><path class="cls-1" d="M52.54,19.14A5.34,5.34,0,0,0,49,13.8L29.14,8.32a3.92,3.92,0,0,0-2,0L7.27,13.8a5.34,5.34,0,0,0-3.55,5.34,5.33,5.33,0,0,0,3.55,5.34l4.08,1.13V41.05c0,4.85,4.63,9.13,16.78,9.13s16.78-4.28,16.78-9.13V25.61L49,24.48a5.34,5.34,0,0,0,3.54-5.34ZM41.86,41.05c0,2-4.58,5.48-13.73,5.48S14.4,43.07,14.4,41.05V26.45L27.12,30a4.18,4.18,0,0,0,1,.13,4,4,0,0,0,1-.14l12.7-3.51v14.6ZM28.48,26.4a1.24,1.24,0,0,1-.7,0L8,20.92a1.93,1.93,0,0,1,0-3.56l19.82-5.47a1.24,1.24,0,0,1,.7,0L48.3,17.36a1.93,1.93,0,0,1,0,3.56L28.48,26.4ZM48,28.27V44.71a1.55,1.55,0,1,0,3.05,0V28.27a1.55,1.55,0,1,0-3.05,0Z"/><rect class="cls-2" width="56" height="56"/></g></g></svg>