<svg xmlns="http://www.w3.org/2000/svg" viewBox="0 0 56 56"><defs><style>.cls-1{fill:#4d4d4d;fill-rule:evenodd;}.cls-2{fill:none;}</style></defs><title>资源 53@3x</title><g id="图层_2" data-name="图层 2"><g id="图层_1-2" data-name="图层 1"><path class="cls-1" d="M49.26,27,29.19,7.67a1.54,1.54,0,0,0-2.13,0L7,27a1.54,1.54,0,0,0,2.13,2.22l19-18.32,19,18.32A1.54,1.54,0,0,0,49.26,27Z"/><path class="cls-1" d="M44.19,29.31a1.54,1.54,0,0,0-1.54,1.54V46.17H34.38V35a1.54,1.54,0,0,0-1.54-1.54H23.42A1.54,1.54,0,0,0,21.88,35V46.17H13.6V31.28a1.54,1.54,0,0,0-3.08,0V47.71a1.54,1.54,0,0,0,1.54,1.54H23.42A1.54,1.54,0,0,0,25,47.71V36.55h6.35V47.7a1.54,1.54,0,0,0,1.54,1.54H44.2a1.54,1.54,0,0,0,1.54-1.54V30.85a1.55,1.55,0,0,0-1.55-1.54ZM31.89,18.36a1.54,1.54,0,0,0-2.17,2.17l3.77,3.77a1.54,1.54,0,0,0,2.17-2.17l-3.77-3.77Z"/><path class="cls-1" d="M37.66,25.87Zm-1.62,0a1.62,1.62,0,1,0,.81-1.4,1.62,1.62,0,0,0-.81,1.4"/><rect class="cls-2" width="56" height="56"/></g></g></svg>