<svg xmlns="http://www.w3.org/2000/svg" viewBox="0 0 34 34">
  <defs>
    <style>.cls-1{fill:#2ebff0;fill-rule:evenodd;}.cls-2{fill:none;}</style>
  </defs>
  <title>资源 56</title>
  <g id="图层_2" data-name="图层 2">
    <g id="图层_1-2" data-name="图层 1">
      <path class="cls-1"
            d="M15.82,16.07H5.58a3.77,3.77,0,0,1-3.77-3.77V5.83A3.77,3.77,0,0,1,5.58,2.06h6.48a3.77,3.77,0,0,1,3.77,3.77V16.07ZM5.58,3.43a2.4,2.4,0,0,0-2.4,2.4v6.48a2.4,2.4,0,0,0,2.4,2.4h8.88V5.83a2.4,2.4,0,0,0-2.4-2.4Z"/>
      <path class="cls-1"
            d="M28,16.07H17.73V5.83A3.77,3.77,0,0,1,21.5,2.06H28a3.77,3.77,0,0,1,3.77,3.77v6.48A3.77,3.77,0,0,1,28,16.07ZM19.1,14.7H28a2.4,2.4,0,0,0,2.4-2.4V5.83A2.4,2.4,0,0,0,28,3.43H21.5a2.4,2.4,0,0,0-2.4,2.4V14.7Z"/>
      <path class="cls-1"
            d="M12.05,32.06H5.58a3.77,3.77,0,0,1-3.77-3.77V21.75A3.77,3.77,0,0,1,5.58,18H15.82V28.29a3.77,3.77,0,0,1-3.77,3.77ZM5.58,19.35a2.4,2.4,0,0,0-2.4,2.4v6.55a2.4,2.4,0,0,0,2.4,2.4h6.48a2.4,2.4,0,0,0,2.4-2.4V19.35Z"/>
      <path class="cls-1"
            d="M28,32.06H21.5a3.77,3.77,0,0,1-3.77-3.77V18H28a3.77,3.77,0,0,1,3.77,3.77v6.55A3.77,3.77,0,0,1,28,32.06ZM19.1,19.35v8.94a2.4,2.4,0,0,0,2.4,2.4H28a2.4,2.4,0,0,0,2.4-2.4V21.75a2.4,2.4,0,0,0-2.4-2.4Z"/>
      <rect class="cls-2" width="34" height="34"/>
    </g>
  </g>
</svg>
