<svg xmlns="http://www.w3.org/2000/svg" xmlns:xlink="http://www.w3.org/1999/xlink" viewBox="0 0 68 68"><defs><style>.cls-1,.cls-2,.cls-3,.cls-4,.cls-5,.cls-6,.cls-7{fill:none;}.cls-1,.cls-2,.cls-4,.cls-5,.cls-6,.cls-7{stroke-miterlimit:10;stroke-width:3px;}.cls-1{stroke:url(#未命名的渐变_39);}.cls-2{stroke:url(#未命名的渐变_39-2);}.cls-4{stroke:url(#未命名的渐变_39-3);}.cls-5{stroke:url(#未命名的渐变_39-4);}.cls-6{stroke:url(#未命名的渐变_39-5);}.cls-7{stroke:url(#未命名的渐变_39-6);}</style><linearGradient id="未命名的渐变_39" x1="9.91" y1="34.86" x2="58.09" y2="34.86" gradientUnits="userSpaceOnUse"><stop offset="0" stop-color="#f15a24"/><stop offset="1" stop-color="#ed1c24"/></linearGradient><linearGradient id="未命名的渐变_39-2" x1="18.06" y1="6.35" x2="49.94" y2="6.35" xlink:href="#未命名的渐变_39"/><linearGradient id="未命名的渐变_39-3" x1="16.52" y1="34.06" x2="45.99" y2="34.06" xlink:href="#未命名的渐变_39"/><linearGradient id="未命名的渐变_39-4" x1="26.2" y1="32.7" x2="33.57" y2="32.7" xlink:href="#未命名的渐变_39"/><linearGradient id="未命名的渐变_39-5" x1="36.54" y1="38.82" x2="50.07" y2="38.82" xlink:href="#未命名的渐变_39"/><linearGradient id="未命名的渐变_39-6" x1="32.93" y1="48.52" x2="53.68" y2="48.52" xlink:href="#未命名的渐变_39"/></defs><title>资源 168</title><g id="图层_2" data-name="图层 2"><g id="图层_1-2" data-name="图层 1"><polyline class="cls-1" points="48.81 6.34 56.59 6.34 56.59 63.38 11.41 63.38 11.41 6.34 19.93 6.34"/><rect class="cls-2" x="19.56" y="3.88" width="28.89" height="4.94"/><rect class="cls-3" width="68" height="68"/><path class="cls-4" d="M29.24,47.67a13.71,13.71,0,0,1,2.83-27.19,14.08,14.08,0,0,1,12.58,7.63"/><polyline class="cls-5" points="32.07 25.3 32.07 34.21 27.26 39.04"/><circle class="cls-6" cx="43.3" cy="38.82" r="5.26"/><path class="cls-7" d="M52.18,53a8.87,8.87,0,0,0-17.74,0Z"/></g></g></svg>