<svg xmlns="http://www.w3.org/2000/svg" xmlns:xlink="http://www.w3.org/1999/xlink" viewBox="0 0 100 100"><defs><style>.cls-1{fill:url(#未命名的渐变_9);}.cls-2{fill:none;stroke:#fff;stroke-miterlimit:10;stroke-width:3px;}</style><linearGradient id="未命名的渐变_9" x1="88.31" y1="11.69" x2="-13.89" y2="113.89" gradientTransform="translate(0.06 -0.06) rotate(0.07)" gradientUnits="userSpaceOnUse"><stop offset="0" stop-color="#1fddff"/><stop offset="1" stop-color="#2194ff"/></linearGradient></defs><title>出勤时间</title><g id="图层_2" data-name="图层 2"><g id="图层_1-2" data-name="图层 1"><rect class="cls-1" x="0.04" y="0.04" width="99.91" height="99.91" rx="12" ry="12" transform="translate(-0.06 0.06) rotate(-0.07)"/><polyline class="cls-2" points="64.81 22.71 72.59 22.71 72.59 79.75 27.41 79.75 27.41 22.71 35.93 22.71"/><rect class="cls-2" x="35.56" y="20.25" width="28.89" height="4.94"/><path class="cls-2" d="M45.24,64a13.71,13.71,0,0,1,2.83-27.19,14.08,14.08,0,0,1,12.58,7.63"/><polyline class="cls-2" points="48.07 41.67 48.07 50.59 43.26 55.41"/><circle class="cls-2" cx="59.3" cy="55.2" r="5.26"/><path class="cls-2" d="M68.18,69.33a8.87,8.87,0,1,0-17.74,0Z"/></g></g></svg>