<svg xmlns="http://www.w3.org/2000/svg" viewBox="0 0 34 34"><defs><style>.cls-1{fill:#2ebff0;fill-rule:evenodd;}.cls-2{fill:none;}</style></defs><title>资源 57</title><g id="图层_2" data-name="图层 2"><g id="图层_1-2" data-name="图层 1"><path class="cls-1" d="M19.52,17.05a5.68,5.68,0,1,0-5.13,0,8.11,8.11,0,0,0-5.53,7.68.69.69,0,0,0,1.38,0,6.72,6.72,0,1,1,13.44,0,.69.69,0,0,0,1.38,0,8.11,8.11,0,0,0-5.53-7.68ZM12.64,12A4.31,4.31,0,1,1,17,16.29,4.31,4.31,0,0,1,12.64,12Z"/><path class="cls-1" d="M27.61,6.39A15,15,0,1,0,6.39,27.61,15,15,0,1,0,27.61,6.39ZM17,30.62A13.62,13.62,0,1,1,30.62,17,13.64,13.64,0,0,1,17,30.62Z"/><rect class="cls-2" width="34" height="34"/></g></g></svg>