<svg xmlns="http://www.w3.org/2000/svg" viewBox="0 0 68 68"><defs><style>.cls-1,.cls-2,.cls-3{fill:none;}.cls-1,.cls-2{stroke:#999;stroke-miterlimit:10;stroke-width:3px;}.cls-2{fill-rule:evenodd;}</style></defs><title>资源 125</title><g id="图层_2" data-name="图层 2"><g id="图层_1-2" data-name="图层 1"><circle class="cls-1" cx="34" cy="34" r="29.32"/><path class="cls-2" d="M49.55,50.49V48.36a5.34,5.34,0,0,0-2.07-4c-2.31-1.77-8-2.42-9.39-3.09s-1.66-1.62-1.66-3.46,5.4-4,5.4-9.64C41.82,18.7,34,19,34,19s-7.82-.31-7.82,9.19c0,5.64,5.4,7.79,5.4,9.64s-.25,2.79-1.66,3.46-7.08,1.32-9.39,3.09a5.34,5.34,0,0,0-2.07,4v2.13"/><rect class="cls-3" width="68" height="68"/></g></g></svg>