<svg xmlns="http://www.w3.org/2000/svg" xmlns:xlink="http://www.w3.org/1999/xlink" viewBox="0 0 100 100"><defs><style>.cls-1{fill:url(#未命名的渐变_104);}.cls-2,.cls-3{fill:none;stroke:#fff;stroke-miterlimit:10;stroke-width:3px;}.cls-3{fill-rule:evenodd;}</style><linearGradient id="未命名的渐变_104" x1="104.75" y1="-4.75" x2="-30.32" y2="130.32" gradientTransform="translate(0.06 -0.06) rotate(0.07)" gradientUnits="userSpaceOnUse"><stop offset="0" stop-color="#ff5ecc"/><stop offset="1" stop-color="#ff3f6f"/></linearGradient></defs><title>资源 86</title><g id="图层_2" data-name="图层 2"><g id="图层_1-2" data-name="图层 1"><rect class="cls-1" x="0.04" y="0.04" width="99.91" height="99.91" rx="12" ry="12" transform="translate(-0.06 0.06) rotate(-0.07)"/><circle class="cls-2" cx="50.4" cy="49.91" r="29.32"/><path class="cls-3" d="M65.94,66.4V64.27a5.34,5.34,0,0,0-2.07-4c-2.31-1.77-8-2.42-9.39-3.09s-1.66-1.62-1.66-3.46,5.4-4,5.4-9.64c0-9.5-7.82-9.19-7.82-9.19s-7.82-.31-7.82,9.19c0,5.64,5.4,7.79,5.4,9.64s-.25,2.79-1.66,3.46-7.08,1.32-9.39,3.09a5.34,5.34,0,0,0-2.07,4V66.4"/></g></g></svg>