<svg xmlns="http://www.w3.org/2000/svg" viewBox="0 0 89.09 89"><defs><style>.cls-1{fill:#b3b3b3;}.cls-2,.cls-3{fill:none;}.cls-2{stroke:#fff;stroke-miterlimit:10;stroke-width:2px;}</style></defs><title>资源 129</title><g id="图层_2" data-name="图层 2"><g id="图层_1-2" data-name="图层 1"><rect class="cls-1" x="4.74" y="4.79" width="80" height="80" rx="34" ry="34"/><path class="cls-2" d="M26.92,28.85V23a2.45,2.45,0,0,1,2.43-2.46H59.74A2.45,2.45,0,0,1,62.17,23V66a2.45,2.45,0,0,1-2.43,2.46H29.35A2.45,2.45,0,0,1,26.92,66V61.15"/><line class="cls-2" x1="29.64" y1="37.07" x2="33.77" y2="37.07"/><line class="cls-2" x1="29.64" y1="44.71" x2="33.77" y2="44.71"/><line class="cls-2" x1="29.64" y1="52.35" x2="33.77" y2="52.35"/><ellipse class="cls-2" cx="46.52" cy="41.57" rx="6.29" ry="6.37"/><path class="cls-2" d="M35.72,54.79a11.94,11.94,0,0,1,21.59,0"/><rect class="cls-3" width="89.09" height="89"/></g></g></svg>