<svg xmlns="http://www.w3.org/2000/svg" viewBox="0 0 89.09 89"><defs><style>.cls-1{fill:#b3b3b3;}.cls-2,.cls-3{fill:none;}.cls-2{stroke:#fff;stroke-miterlimit:10;stroke-width:2px;}</style></defs><title>资源 128</title><g id="图层_2" data-name="图层 2"><g id="图层_1-2" data-name="图层 1"><rect class="cls-1" x="4.54" y="4.5" width="80" height="80" rx="34" ry="34"/><path class="cls-2" d="M56.18,22.1h3a2.36,2.36,0,0,1,2.35,2.38V66.12a2.36,2.36,0,0,1-2.35,2.38H29.88a2.36,2.36,0,0,1-2.35-2.38V24.48a2.36,2.36,0,0,1,2.35-2.38h3.67"/><rect class="cls-2" x="36.81" y="20.5" width="16.06" height="3.2" rx="0.67" ry="0.67"/><polyline class="cls-2" points="38.57 34.49 45.41 41.43 52.15 34.59"/><line class="cls-2" x1="45.41" y1="41.43" x2="45.41" y2="57.83"/><line class="cls-2" x1="38.57" y1="41.43" x2="52.15" y2="41.43"/><line class="cls-2" x1="38.57" y1="49.08" x2="52.15" y2="49.08"/><rect class="cls-3" width="89.09" height="89"/></g></g></svg>