<svg xmlns="http://www.w3.org/2000/svg" viewBox="0 0 56 56"><defs><style>.cls-1{fill:#4d4d4d;fill-rule:evenodd;}.cls-2{fill:none;}</style></defs><title>资源 50@3x</title><g id="图层_2" data-name="图层 2"><g id="图层_1-2" data-name="图层 1"><path class="cls-1" d="M28.11,49.12H8.73a4.49,4.49,0,0,1-4.54-3.8,5,5,0,0,1-.05-.87q0-14.84,0-29.68A4.41,4.41,0,0,1,7.7,10.24a11,11,0,0,1,2.66-.09,1.44,1.44,0,0,1,1.26,1.61,1.48,1.48,0,0,1-1.46,1.35H8.7a1.49,1.49,0,0,0-1.57,1.57q0,14.95,0,29.9a1.49,1.49,0,0,0,1.52,1.55H47.38a1.82,1.82,0,0,0,1.1-.27,1.49,1.49,0,0,0,.65-1.15c0-.1,0-.21,0-.31q0-14.78,0-29.55a1.54,1.54,0,0,0-1.75-1.73H46.11a1.47,1.47,0,0,1-1.47-1.34,1.43,1.43,0,0,1,1.25-1.62,8.57,8.57,0,0,1,2.91.12,4.48,4.48,0,0,1,3.33,4.42q0,11.76,0,23.52,0,3.14,0,6.28a4.49,4.49,0,0,1-4.64,4.62Z"/><path class="cls-1" d="M25,30.74a9.09,9.09,0,0,1,4.62,7.86h-3a6.07,6.07,0,0,0-5.65-6,6,6,0,0,0-6.39,6h-3a9.1,9.1,0,0,1,4.63-7.87,6,6,0,0,1-1.47-5.4A5.78,5.78,0,0,1,17,21.81a6,6,0,0,1,8,8.93ZM20.61,29.6a3,3,0,0,0,3-3,3,3,0,1,0-6,0,3,3,0,0,0,3,3Z"/><path class="cls-1" d="M28.14,13.11h-6a1.49,1.49,0,0,1-.6-2.85,1.73,1.73,0,0,1,.66-.14H34.08a1.5,1.5,0,1,1,0,3Z"/><path class="cls-1" d="M37.89,28.11H32.67a1.5,1.5,0,1,1-.06-3H43.14a1.49,1.49,0,0,1,0,3c-1.75,0-3.5,0-5.25,0Z"/><path class="cls-1" d="M39.4,35.62c1.26,0,2.53,0,3.79,0a1.49,1.49,0,0,1,.47,2.89,1.84,1.84,0,0,1-.61.1H35.7a1.5,1.5,0,1,1,0-3h3.7Z"/><path class="cls-1" d="M14.62,11.61c0-1,0-1.95,0-2.92a1.49,1.49,0,0,1,1.59-1.56A1.48,1.48,0,0,1,17.6,8.34a2.51,2.51,0,0,1,0,.4q0,2.88,0,5.75A1.5,1.5,0,0,1,16,16.11a1.43,1.43,0,0,1-1.36-1.23c-.06-.54,0-1.1,0-1.64s0-1.08,0-1.62Z"/><path class="cls-1" d="M41.62,11.61c0,1,0,2.07,0,3.11a1.44,1.44,0,0,1-1.25,1.38,1.48,1.48,0,0,1-1.64-1,1.77,1.77,0,0,1-.09-.55q0-2.94,0-5.88a1.49,1.49,0,0,1,1.5-1.56,1.47,1.47,0,0,1,1.49,1.53c0,1,0,2,0,3Z"/><rect class="cls-2" width="56" height="56"/></g></g></svg>