<svg xmlns="http://www.w3.org/2000/svg" viewBox="0 0 34 34"><defs><style>.cls-1{fill:#b3b3b3;fill-rule:evenodd;}.cls-2{fill:none;}</style></defs><title>资源 60</title><g id="图层_2" data-name="图层 2"><g id="图层_1-2" data-name="图层 1"><path class="cls-1" d="M10.14,19.48A2.58,2.58,0,0,0,7.43,22v5h5.42V22a2.58,2.58,0,0,0-2.71-2.51Zm1.37,6.2H8.77V22a1.27,1.27,0,0,1,1.37-1.17A1.27,1.27,0,0,1,11.51,22v3.7Z"/><path class="cls-1" d="M30.92,30.73H30v-21A.67.67,0,0,0,29.67,9L15.58,2.16l-.16-.05a.67.67,0,0,0-.89.63v9.14L4.4,17.27l-.06,0A.67.67,0,0,0,4,17.9V30.73H2.9a.67.67,0,0,0,0,1.34h28a.67.67,0,0,0,0-1.34Zm-15.06-.16V3.79L28.69,10V30.69H25.12v-15a2.67,2.67,0,0,0-2.81-2.51,2.67,2.67,0,0,0-2.81,2.51v15H15.85a.67.67,0,0,0,0-.12Zm5-.08V15.66a1.37,1.37,0,0,1,1.47-1.17,1.37,1.37,0,0,1,1.47,1.17V30.49Zm-6.3.21H5.34V18.29l9.19-4.89V30.57a.67.67,0,0,0,0,.12Z"/><rect class="cls-2" width="34" height="34"/></g></g></svg>
