<svg xmlns="http://www.w3.org/2000/svg" xmlns:xlink="http://www.w3.org/1999/xlink" viewBox="0 0 89.09 89"><defs><style>.cls-1{fill:url(#未命名的渐变_16);}.cls-2,.cls-3,.cls-4{fill:none;}.cls-2,.cls-3{stroke:#fff;stroke-miterlimit:10;stroke-width:2px;}.cls-3{fill-rule:evenodd;}</style><linearGradient id="未命名的渐变_16" x1="84.68" y1="4.36" x2="-3.76" y2="92.81" gradientUnits="userSpaceOnUse"><stop offset="0" stop-color="#ac92ec"/><stop offset="1" stop-color="#662d91"/></linearGradient></defs><title>资源 39@3x</title><g id="图层_2" data-name="图层 2"><g id="图层_1-2" data-name="图层 1"><rect class="cls-1" x="4.54" y="4.5" width="80" height="80" rx="34" ry="34"/><path class="cls-2" d="M56.18,22.1h3a2.36,2.36,0,0,1,2.35,2.38V66.12a2.36,2.36,0,0,1-2.35,2.38H29.88a2.36,2.36,0,0,1-2.35-2.38V24.48a2.36,2.36,0,0,1,2.35-2.38h3.67"/><rect class="cls-2" x="36.81" y="20.5" width="16.06" height="3.2" rx="0.67" ry="0.67"/><path class="cls-3" d="M57.17,58V56.25a4.32,4.32,0,0,0-1.65-3.19c-1.83-1.42-6.33-1.94-7.45-2.49s-1.32-1.3-1.32-2.79S51,44.56,51,40c0-7.64-6.2-7.39-6.2-7.39s-6.2-.25-6.2,7.39c0,4.54,4.28,6.27,4.28,7.75s-.2,2.24-1.32,2.79S36,51.63,34.16,53.05a4.32,4.32,0,0,0-1.65,3.19V58"/><rect class="cls-4" width="89.09" height="89"/></g></g></svg>