<svg xmlns="http://www.w3.org/2000/svg" viewBox="0 0 56 56"><defs><style>.cls-1{fill:#4d4d4d;fill-rule:evenodd;}.cls-2{fill:none;}</style></defs><title>资源 52@3x</title><g id="图层_2" data-name="图层 2"><g id="图层_1-2" data-name="图层 1"><path class="cls-1" d="M49.14,21.08a7.2,7.2,0,0,0-.44-2.63,6.53,6.53,0,0,0-3-3.46,6,6,0,0,0-3-.7H37.05V13.11a23.78,23.78,0,0,0-.09-2.5,4.59,4.59,0,0,0-1.45-2.89,4.16,4.16,0,0,0-3.07-1.27H24a4.88,4.88,0,0,0-1.18.13A4.68,4.68,0,0,0,19.4,11c0,.74,0,1.49,0,2.23v1.05H13.62a5.6,5.6,0,0,0-1.14.09,6.24,6.24,0,0,0-4.07,2.45A7.13,7.13,0,0,0,7.1,21.08V41.27a10.89,10.89,0,0,0,.09,1.62A6.48,6.48,0,0,0,9.46,47a6.14,6.14,0,0,0,4.12,1.45h28.6a9.91,9.91,0,0,0,1.09,0,6,6,0,0,0,4.51-2.5,7,7,0,0,0,1.31-4.25c0-6.18,0-12.92,0-20.58Zm-2.8,4.82v1.4H36.88V26a1.33,1.33,0,0,0-1.36-1.31h0A1.33,1.33,0,0,0,34.16,26V27.3h-12v-.44a8.44,8.44,0,0,0,0-1.05,1.25,1.25,0,0,0-1.31-1.09h-.13A1.3,1.3,0,0,0,19.4,26V27.3H9.9V25.46c0-1.53,0-3.15,0-4.73a3.76,3.76,0,0,1,3.64-3.55H42.7a3.73,3.73,0,0,1,3.64,3.33,3.54,3.54,0,0,1,0,.7c0,1.58,0,3.15,0,4.69ZM9.9,41.75V30.28h9.46V31.5a1.33,1.33,0,0,0,1.36,1.31h0a1.37,1.37,0,0,0,1.4-1.36V30.19H34v.88h0a3.1,3.1,0,0,0,0,.61,1.32,1.32,0,0,0,1.31,1.09h.13a1.31,1.31,0,0,0,1.27-1.31V30.19h9.46V41.67A3.82,3.82,0,0,1,43.8,45.3a3.29,3.29,0,0,1-1.14.22H13.36A3.62,3.62,0,0,1,9.9,42.63a5.77,5.77,0,0,0,0-.88ZM34.29,13.5v.79H22.16v-3a1.72,1.72,0,0,1,1.09-1.66A2.31,2.31,0,0,1,24,9.43H32.5a1.76,1.76,0,0,1,1.8,1.71c0,.74,0,1.53,0,2.36ZM13.58,48.23Z"/><rect class="cls-2" width="56" height="56"/></g></g></svg>