<svg xmlns="http://www.w3.org/2000/svg" viewBox="0 0 89.09 89"><defs><style>.cls-1{fill:#b3b3b3;}.cls-2,.cls-3{fill:none;}.cls-2{stroke:#fff;stroke-miterlimit:10;stroke-width:2px;}</style></defs><title>资源 131</title><g id="图层_2" data-name="图层 2"><g id="图层_1-2" data-name="图层 1"><rect class="cls-1" x="4.54" y="4.5" width="80" height="80" rx="34" ry="34"/><path class="cls-2" d="M56.14,21.3h3a2.36,2.36,0,0,1,2.34,2.38V65.32a2.36,2.36,0,0,1-2.34,2.38H29.94a2.36,2.36,0,0,1-2.34-2.38V23.68a2.36,2.36,0,0,1,2.34-2.38H33.6"/><rect class="cls-2" x="36.4" y="20.7" width="15.99" height="3.2" rx="0.67" ry="0.67"/><polygon class="cls-2" points="36.68 36.59 40.81 32.42 53.8 32.42 53.8 36.59 48.43 36.59 48.43 56.58 44.79 56.58 44.79 36.59 39.54 36.59 36.68 36.59"/><rect class="cls-3" width="89.09" height="89"/></g></g></svg>